<svg width="682" height="558" viewBox="0 0 682 558" fill="none" xmlns="http://www.w3.org/2000/svg">
<g clip-path="url(#clip0_224_319)">
<path d="M347.19 365.06L380 478.12H383.77L356.94 365.06H347.19ZM312.88 365.06L280.06 478.12H276.29L303.12 365.06H312.88Z" fill="#277BEB"/>
<path d="M330.03 398.28C360.549 398.28 385.29 373.539 385.29 343.02C385.29 312.501 360.549 287.76 330.03 287.76C299.511 287.76 274.77 312.501 274.77 343.02C274.77 373.539 299.511 398.28 330.03 398.28Z" fill="#FF7494"/>
<path d="M383.54 359.61L382.12 359.17C383.733 353.932 384.549 348.481 384.54 343C384.563 334.912 382.769 326.922 379.29 319.62L380.64 318.98C386.649 331.678 387.684 346.167 383.54 359.59V359.61ZM313.38 396.51C303.341 393.357 294.389 387.45 287.54 379.461C280.692 371.473 276.222 361.723 274.64 351.32L276.11 351.1C277.651 361.227 282.002 370.719 288.668 378.497C295.334 386.275 304.048 392.027 313.82 395.1L313.38 396.51ZM379.33 369.62L378.02 368.91C378.963 367.16 379.811 365.361 380.56 363.52L381.94 364.08C381.176 365.975 380.304 367.824 379.33 369.62V369.62ZM210.51 439.74C208.352 439.742 206.241 439.104 204.446 437.906C202.651 436.709 201.251 435.005 200.423 433.012C199.596 431.019 199.379 428.825 199.798 426.708C200.218 424.591 201.257 422.646 202.782 421.119C204.307 419.592 206.251 418.552 208.368 418.13C210.484 417.709 212.679 417.924 214.673 418.749C216.667 419.575 218.371 420.973 219.571 422.768C220.77 424.562 221.41 426.672 221.41 428.83C221.407 431.721 220.258 434.493 218.215 436.538C216.172 438.583 213.401 439.735 210.51 439.74V439.74ZM210.51 419.42C208.649 419.42 206.83 419.972 205.282 421.006C203.735 422.04 202.529 423.509 201.816 425.229C201.104 426.948 200.918 428.84 201.281 430.666C201.644 432.491 202.54 434.168 203.856 435.484C205.172 436.8 206.849 437.696 208.674 438.059C210.5 438.422 212.392 438.236 214.111 437.524C215.831 436.811 217.3 435.605 218.334 434.058C219.368 432.51 219.92 430.691 219.92 428.83C219.917 426.335 218.925 423.943 217.161 422.179C215.397 420.415 213.005 419.423 210.51 419.42V419.42Z" fill="#382C6F"/>
<path d="M174.66 428.83H246.35V478.11H174.66V428.83Z" fill="#FF8A9F"/>
<path d="M238.88 428.83H246.35V478.11H238.88V428.83ZM174.66 452.73H238.88V454.22H174.66V452.73Z" fill="#382C6F"/>
<path d="M201.55 452.73H212V459.45H201.55V452.73Z" fill="white"/>
<path d="M357.26 363.67C357.254 367.164 356.575 370.623 355.26 373.86H304.78C303.277 370.136 302.615 366.125 302.844 362.116C303.073 358.106 304.186 354.197 306.103 350.668C308.02 347.139 310.694 344.077 313.934 341.703C317.173 339.329 320.897 337.701 324.84 336.936C328.782 336.17 332.845 336.286 336.738 337.275C340.63 338.265 344.255 340.103 347.354 342.658C350.452 345.213 352.947 348.422 354.66 352.055C356.373 355.687 357.261 359.654 357.26 363.67V363.67Z" fill="#382C6F"/>
<path d="M330.03 371.14C334.156 371.14 337.5 367.796 337.5 363.67C337.5 359.544 334.156 356.2 330.03 356.2C325.904 356.2 322.56 359.544 322.56 363.67C322.56 367.796 325.904 371.14 330.03 371.14Z" fill="#382C6F"/>
<path d="M396.089 329.341C401.035 326.655 402.867 320.469 400.182 315.523C397.496 310.577 391.31 308.745 386.364 311.43C381.418 314.116 379.586 320.302 382.271 325.248C384.957 330.193 391.143 332.026 396.089 329.341Z" fill="#6C55D5"/>
<path d="M343.23 306.4L386.45 329.39L397.66 312.49L359.67 281.63L343.23 306.4Z" fill="#FFBB4F"/>
<path d="M354.681 307.49C362.552 305.032 366.94 296.659 364.483 288.789C362.025 280.918 353.652 276.529 345.782 278.987C337.911 281.444 333.522 289.817 335.98 297.688C338.437 305.559 346.81 309.947 354.681 307.49Z" fill="#FFBB4F"/>
<path d="M318.32 305.49L278.08 333.36L264.97 317.89L299.1 282.81L318.32 305.49V305.49Z" fill="#FFBB4F"/>
<path d="M324.714 294.138C325.227 285.909 318.972 278.821 310.743 278.308C302.513 277.794 295.425 284.049 294.912 292.279C294.398 300.509 300.654 307.596 308.883 308.11C317.113 308.623 324.2 302.368 324.714 294.138Z" fill="#FFBB4F"/>
<path d="M313.49 384.05C319.118 384.05 323.68 379.488 323.68 373.86C323.68 368.232 319.118 363.67 313.49 363.67C307.862 363.67 303.3 368.232 303.3 373.86C303.3 379.488 307.862 384.05 313.49 384.05Z" fill="#382C6F"/>
<path d="M346.56 384.05C352.188 384.05 356.75 379.488 356.75 373.86C356.75 368.232 352.188 363.67 346.56 363.67C340.932 363.67 336.37 368.232 336.37 373.86C336.37 379.488 340.932 384.05 346.56 384.05Z" fill="#382C6F"/>
<path d="M360.91 289.24L357.26 363.67H302.81L299.16 289.24C299.084 287.823 299.298 286.405 299.788 285.073C300.278 283.741 301.035 282.523 302.013 281.493C302.99 280.464 304.166 279.644 305.471 279.085C306.776 278.525 308.181 278.238 309.6 278.24H350.47C351.889 278.241 353.292 278.53 354.595 279.09C355.899 279.651 357.074 280.47 358.051 281.499C359.027 282.528 359.785 283.745 360.276 285.076C360.768 286.407 360.983 287.823 360.91 289.24V289.24Z" fill="#FFBB4F"/>
<path d="M357.26 363.67L356.76 373.86V374.36C356.634 376.974 355.506 379.439 353.611 381.244C351.715 383.048 349.197 384.053 346.58 384.05H313.58C310.964 384.05 308.447 383.045 306.552 381.241C304.657 379.437 303.528 376.973 303.4 374.36V373.86L302.9 363.67H357.26Z" fill="#382C6F"/>
<path d="M355.063 475.029C357.465 472.512 357.372 468.524 354.855 466.122C352.338 463.72 348.35 463.813 345.948 466.33C343.546 468.848 343.639 472.835 346.156 475.238C348.673 477.64 352.661 477.546 355.063 475.029Z" fill="#382C6F"/>
<path d="M348.19 384.21C352.962 384.21 356.83 380.342 356.83 375.57C356.83 370.798 352.962 366.93 348.19 366.93C343.418 366.93 339.55 370.798 339.55 375.57C339.55 380.342 343.418 384.21 348.19 384.21Z" fill="#382C6F"/>
<path d="M344.22 470.65L339.55 375.57H356.82V470.65H344.22V470.65Z" fill="#382C6F"/>
<path d="M363.16 478.12H344.16V470.65H356.77L364.01 474.65C364.309 474.808 364.559 475.044 364.735 475.333C364.911 475.621 365.006 475.952 365.01 476.29C364.997 476.775 364.798 477.236 364.453 477.577C364.108 477.918 363.645 478.112 363.16 478.12V478.12Z" fill="#FF8A9F"/>
<path d="M396.171 390.465C396.95 387.074 394.833 383.693 391.442 382.914C388.051 382.135 384.67 384.252 383.891 387.643C383.112 391.034 385.229 394.415 388.62 395.194C392.011 395.973 395.392 393.856 396.171 390.465Z" fill="#382C6F"/>
<path d="M302.59 351.25C304.204 351.817 305.613 352.851 306.639 354.22C307.665 355.59 308.262 357.232 308.353 358.941C308.444 360.649 308.026 362.346 307.151 363.817C306.277 365.288 304.985 366.465 303.441 367.201C301.896 367.937 300.168 368.198 298.475 367.95C296.782 367.703 295.201 366.958 293.931 365.811C292.662 364.663 291.762 363.165 291.345 361.506C290.928 359.847 291.014 358.101 291.59 356.49C292.359 354.34 293.948 352.583 296.009 351.601C298.07 350.619 300.436 350.493 302.59 351.25V351.25Z" fill="#382C6F"/>
<path d="M387.93 395.01L296.79 367.52L302.59 351.25L392.16 383.14L387.93 395.01Z" fill="#382C6F"/>
<path d="M392.84 403.51L399.19 385.65L392.19 383.15L387.93 395L389.22 403.14C389.273 403.473 389.414 403.786 389.628 404.046C389.843 404.306 390.123 404.505 390.44 404.62C390.906 404.785 391.418 404.762 391.866 404.555C392.315 404.347 392.665 403.972 392.84 403.51V403.51Z" fill="#FF8A9F"/>
<path d="M305.58 380.3L293 364.85L305.46 352.95L320.3 366.27L305.58 380.3V380.3Z" fill="#382C6F"/>
<path d="M203.14 335.18L202.36 342.65L187.5 478.12H183.73L194.88 335.18H203.14Z" fill="#277BEB"/>
<path d="M551.56 335.18L552.35 342.65L567.2 478.12H570.97L559.82 335.18H551.56Z" fill="#D8D1FF"/>
<path d="M186.84 335.18H566.55V342.65H186.84V335.18Z" fill="#236FD4"/>
<path d="M272.28 335.18C277.908 335.18 282.47 330.618 282.47 324.99C282.47 319.362 277.908 314.8 272.28 314.8C266.652 314.8 262.09 319.362 262.09 324.99C262.09 330.618 266.652 335.18 272.28 335.18Z" fill="#FFBB4F"/>
<path d="M337.72 330.7H373.56V335.18H337.72V330.7Z" fill="#382C6F"/>
<path d="M444.74 284.03L442.88 323.93L442.36 335.18H370.67L373.05 284.03H444.74Z" fill="#277BEB"/>
<path d="M411.282 313.301C413.396 311.236 413.51 307.926 411.538 305.907C409.566 303.888 406.254 303.926 404.14 305.99C402.027 308.055 401.912 311.365 403.884 313.384C405.856 315.403 409.168 315.366 411.282 313.301Z" fill="white"/>
<path d="M442.88 323.93L442.36 335.18H370.67L442.88 323.93Z" fill="#236FD4"/>
<path d="M323.86 253.69L327.92 253.36L327.6 249.3C327.511 248.224 326.999 247.227 326.176 246.528C325.353 245.829 324.286 245.484 323.21 245.57C322.677 245.613 322.157 245.761 321.681 246.004C321.205 246.248 320.781 246.584 320.435 246.992C320.088 247.399 319.826 247.871 319.662 248.381C319.498 248.89 319.436 249.427 319.48 249.96C319.567 251.035 320.077 252.032 320.898 252.732C321.719 253.431 322.785 253.776 323.86 253.69V253.69Z" fill="#FF8A9F"/>
<path d="M347.05 220L340.48 220.52L347.06 219.99L347.05 220Z" fill="#382C6F"/>
<path d="M341.64 258.62L328.28 257.85L327.72 250.85L323.66 251.18L324.18 257.64L323 257.57L321.83 277.77C321.764 280.197 322.645 282.554 324.287 284.342C325.929 286.13 328.203 287.209 330.626 287.349C333.05 287.49 335.433 286.681 337.27 285.094C339.108 283.508 340.256 281.268 340.47 278.85L341.64 258.62ZM353 242.33L352.7 240.01C352.519 238.63 352.141 237.283 351.58 236.01L339.09 237.01C337.516 237.138 335.932 236.938 334.44 236.422C332.947 235.905 331.578 235.084 330.42 234.01L331.72 250.19C331.827 251.378 332.398 252.477 333.31 253.246C334.222 254.016 335.401 254.394 336.59 254.3L354.36 252.86L353.15 243.54L353 242.33Z" fill="#FF8A9F"/>
<path d="M339.12 237L351.61 236C352.171 237.273 352.549 238.62 352.73 240L353.03 242.32L353.18 243.47C354.905 243.018 356.46 242.071 357.655 240.746C358.849 239.422 359.63 237.777 359.902 236.015C360.174 234.252 359.925 232.449 359.185 230.826C358.446 229.203 357.248 227.831 355.74 226.88C355.493 225.23 354.742 223.697 353.592 222.489C352.441 221.281 350.946 220.457 349.31 220.13C348.712 219.963 348.089 219.902 347.47 219.95H347.06L340.48 220.48L339.8 220.54C338.415 220.652 337.126 221.293 336.2 222.33C335.503 221.576 334.606 221.035 333.613 220.771C332.621 220.507 331.573 220.53 330.594 220.838C329.614 221.146 328.742 221.726 328.079 222.511C327.416 223.296 326.99 224.252 326.85 225.27C323.436 225.758 320.336 227.529 318.182 230.224C316.029 232.918 314.984 236.332 315.26 239.77L316.26 251.71L316.69 257.09C316.835 258.884 317.687 260.547 319.058 261.713C320.428 262.879 322.206 263.454 324 263.31L324.68 263.26L323.68 251.11L327.74 250.78L328.74 263.04C328.975 265.903 330.333 268.557 332.517 270.423C334.701 272.289 337.535 273.216 340.4 273L351.15 272.14C351.888 272.086 352.607 271.882 353.263 271.541C353.919 271.2 354.499 270.729 354.967 270.156C355.435 269.583 355.781 268.921 355.985 268.21C356.188 267.499 356.244 266.754 356.15 266.02L354.43 252.77L336.66 254.21C335.471 254.304 334.292 253.926 333.38 253.156C332.468 252.386 331.897 251.288 331.79 250.1L330.45 234C331.608 235.074 332.977 235.895 334.47 236.411C335.962 236.928 337.546 237.128 339.12 237V237Z" fill="#382C6F"/>
<path d="M335.36 329.43C335.617 330.279 335.615 331.185 335.356 332.034C335.097 332.882 334.592 333.635 333.905 334.196C333.218 334.757 332.379 335.101 331.496 335.186C330.613 335.27 329.725 335.09 328.944 334.668C328.163 334.247 327.525 333.604 327.111 332.819C326.696 332.035 326.524 331.145 326.615 330.263C326.707 329.38 327.059 328.545 327.626 327.863C328.193 327.18 328.949 326.682 329.8 326.43C330.935 326.094 332.157 326.221 333.199 326.783C334.241 327.345 335.018 328.297 335.36 329.43Z" fill="#FF8A9F"/>
<path d="M274.23 315L331.91 326.3L331.05 335.18H272.29L274.23 315Z" fill="#FFBB4F"/>
<path d="M347.24 327.52C346.79 326 345.757 324.721 344.367 323.96C342.977 323.199 341.342 323.02 339.82 323.46L330.82 326.08L328 325.53V335.17H341.5C342.068 335.172 342.633 335.095 343.18 334.94C344.699 334.49 345.979 333.457 346.74 332.067C347.5 330.677 347.68 329.042 347.24 327.52V327.52Z" fill="#FF8A9F"/>
<path d="M295.57 315.74H304.03V324.2H295.57V315.74Z" fill="#FFBB4F"/>
<path d="M289.911 318.815L290.197 317.353L328.176 324.79L327.889 326.253L289.911 318.815Z" fill="white"/>
<path d="M312.678 373.124L313.108 371.698L339.369 379.621L338.938 381.048L312.678 373.124Z" fill="#6C55D6"/>
<path d="M82.05 233.73C79.86 243.9 76.18 253.73 73.24 263.73C70.24 274.01 67.16 284.46 67.24 295.18C67.352 309.273 72.76 322.809 82.39 333.1C86.14 337.1 90.52 340.54 93.39 345.17C96.26 349.8 97.39 356.17 94.12 360.58C89.47 366.94 79.51 365.58 72.71 369.53C64.14 374.53 62.95 387.28 67.84 395.91C72.73 404.54 94.96 429.25 126.7 423.13C140.9 420.4 160.16 406.88 159.61 392.42C159.04 377.37 144.61 365.18 145.15 350.12C145.47 340.26 152.1 331.92 157.84 323.9C163.58 315.88 168.93 306.09 166.29 296.58C162.4 282.58 144.37 278.26 135.64 266.65C130.02 259.17 128.79 249.34 128.44 239.99C128.09 230.64 128.33 221.06 125.21 212.24C117.62 190.81 90.76 193.36 82.05 233.73Z" fill="#BED1EB"/>
<path d="M114.66 287.52H116.15V449.75H114.66V287.52Z" fill="#382C6F"/>
<path d="M116.15 334.39L114.67 334.15C117.09 319.47 133.78 310.35 134.49 309.97L135.19 311.28C135 311.37 118.44 320.45 116.15 334.39ZM114.67 398.28C113.04 388.37 101.22 381.89 101.1 381.83L101.8 380.51C102.32 380.79 114.39 387.39 116.15 398.04L114.67 398.28Z" fill="#382C6F"/>
<path d="M88.4 444.15H142.17V459.64C142.17 464.541 140.223 469.242 136.757 472.707C133.292 476.173 128.591 478.12 123.69 478.12H106.88C101.979 478.12 97.2783 476.173 93.8127 472.707C90.347 469.242 88.4 464.541 88.4 459.64V444.15Z" fill="#FFBB4F"/>
<path d="M97.94 476.67C94.8387 475.043 92.241 472.599 90.4275 469.603C88.614 466.607 87.6535 463.172 87.65 459.67V453.97H89.15V459.67C89.1431 462.905 90.0245 466.08 91.6979 468.848C93.3713 471.616 95.7726 473.872 98.64 475.37L97.94 476.67Z" fill="#382C6F"/>
<path d="M88.4 449H142.17V450.49H88.4V449Z" fill="white"/>
<path d="M0 478.12H681.32V479.61H0V478.12Z" fill="#BED1EB"/>
<path d="M107.92 443.4H142.17V444.89H107.92V443.4Z" fill="#382C6F"/>
<path d="M352.58 256.64C352.628 257.178 352.569 257.72 352.408 258.235C352.246 258.75 351.985 259.228 351.639 259.642C351.292 260.057 350.868 260.398 350.389 260.648C349.911 260.899 349.388 261.052 348.85 261.1C348.312 261.148 347.77 261.089 347.255 260.928C346.74 260.766 346.262 260.505 345.848 260.159C345.433 259.812 345.091 259.388 344.841 258.909C344.591 258.431 344.438 257.908 344.39 257.37L352.58 256.64Z" fill="white"/>
<path d="M529.211 414.393C530.493 406.538 525.165 399.132 517.311 397.85C509.456 396.568 502.05 401.896 500.768 409.75C499.486 417.605 504.814 425.011 512.668 426.293C520.523 427.575 527.929 422.247 529.211 414.393Z" fill="white"/>
<path d="M515 427.26C512.001 427.262 509.068 426.374 506.574 424.709C504.079 423.044 502.135 420.677 500.986 417.906C499.837 415.136 499.536 412.087 500.121 409.145C500.705 406.203 502.149 403.501 504.27 401.38C506.391 399.259 509.093 397.815 512.035 397.231C514.977 396.646 518.025 396.947 520.796 398.096C523.567 399.245 525.934 401.189 527.599 403.684C529.264 406.178 530.152 409.111 530.15 412.11C530.145 416.126 528.547 419.977 525.707 422.817C522.867 425.657 519.016 427.255 515 427.26V427.26ZM515 398.45C512.298 398.45 509.657 399.251 507.411 400.752C505.164 402.253 503.414 404.386 502.38 406.882C501.346 409.379 501.075 412.125 501.602 414.775C502.13 417.425 503.43 419.859 505.341 421.769C507.251 423.679 509.685 424.98 512.335 425.507C514.985 426.035 517.731 425.764 520.227 424.73C522.723 423.696 524.857 421.945 526.358 419.699C527.859 417.453 528.66 414.812 528.66 412.11C528.657 408.488 527.217 405.015 524.656 402.454C522.095 399.893 518.622 398.453 515 398.45V398.45Z" fill="#382C6F"/>
<path d="M500.596 426.64C505.88 424.43 508.371 418.355 506.161 413.072C503.951 407.788 497.876 405.297 492.593 407.507C487.309 409.717 484.818 415.792 487.028 421.075C489.238 426.359 495.313 428.85 500.596 426.64Z" fill="white"/>
<path d="M496.6 428.16C494.4 428.162 492.248 427.511 490.418 426.29C488.588 425.069 487.161 423.332 486.318 421.3C485.475 419.268 485.254 417.031 485.683 414.873C486.112 412.715 487.171 410.733 488.727 409.177C490.283 407.621 492.265 406.562 494.423 406.133C496.581 405.704 498.818 405.925 500.85 406.768C502.882 407.611 504.619 409.038 505.84 410.868C507.061 412.698 507.712 414.85 507.71 417.05C507.705 419.995 506.532 422.818 504.45 424.9C502.368 426.982 499.545 428.155 496.6 428.16V428.16ZM496.6 407.42C494.695 407.418 492.832 407.981 491.247 409.038C489.662 410.095 488.426 411.598 487.696 413.358C486.965 415.117 486.773 417.054 487.144 418.923C487.514 420.791 488.431 422.508 489.777 423.856C491.123 425.204 492.839 426.122 494.708 426.494C496.576 426.867 498.513 426.676 500.273 425.948C502.033 425.219 503.538 423.985 504.596 422.401C505.655 420.817 506.22 418.955 506.22 417.05C506.217 414.498 505.203 412.052 503.4 410.247C501.597 408.442 499.151 407.425 496.6 407.42V407.42Z" fill="#382C6F"/>
<path d="M534.02 413.6L533.04 421.12L532.85 422.61L530.19 443.13L526.95 468.1L526.63 470.59L525.65 478.12H483.63L482.66 470.59L482.46 469.1L480.11 450.94L476.44 422.61L476.25 421.12L475.27 413.6H534.02V413.6Z" fill="#277BEB"/>
<path d="M507.92 284.03H523.6V335.18H507.92V284.03Z" fill="#FF7494"/>
<path d="M513.14 289.26H518.37V309.98H513.14V289.26Z" fill="white"/>
<path d="M518.74 322.58C518.74 323.173 518.564 323.753 518.234 324.247C517.905 324.74 517.436 325.125 516.888 325.352C516.34 325.579 515.737 325.638 515.155 325.522C514.573 325.407 514.038 325.121 513.619 324.701C513.199 324.282 512.913 323.747 512.798 323.165C512.682 322.583 512.741 321.98 512.968 321.432C513.195 320.884 513.58 320.415 514.073 320.086C514.567 319.756 515.147 319.58 515.74 319.58C516.536 319.58 517.299 319.896 517.861 320.459C518.424 321.021 518.74 321.784 518.74 322.58Z" fill="#382C6F"/>
<path opacity="0.15" d="M492.23 284.03H507.91V335.18H492.23V284.03Z" fill="#297FF4"/>
<path d="M497.46 289.26H502.69V309.98H497.46V289.26Z" fill="white"/>
<path d="M503.06 322.58C503.06 323.173 502.884 323.753 502.554 324.247C502.225 324.74 501.756 325.125 501.208 325.352C500.66 325.579 500.057 325.638 499.475 325.522C498.893 325.407 498.358 325.121 497.939 324.701C497.519 324.282 497.233 323.747 497.118 323.165C497.002 322.583 497.061 321.98 497.288 321.432C497.515 320.884 497.9 320.415 498.393 320.086C498.887 319.756 499.467 319.58 500.06 319.58C500.856 319.58 501.619 319.896 502.181 320.459C502.744 321.021 503.06 321.784 503.06 322.58Z" fill="#382C6F"/>
<path d="M476.55 284.03H492.23V335.18H476.55V284.03Z" fill="#FFBB4F"/>
<path d="M481.78 289.26H487.01V309.98H481.78V289.26Z" fill="white"/>
<path d="M487.38 322.58C487.38 323.173 487.204 323.753 486.874 324.247C486.545 324.74 486.076 325.125 485.528 325.352C484.98 325.579 484.377 325.638 483.795 325.522C483.213 325.407 482.678 325.121 482.259 324.701C481.839 324.282 481.553 323.747 481.438 323.165C481.322 322.583 481.381 321.98 481.608 321.432C481.835 320.884 482.22 320.415 482.713 320.086C483.207 319.756 483.787 319.58 484.38 319.58C485.176 319.58 485.939 319.896 486.501 320.459C487.064 321.021 487.38 321.784 487.38 322.58V322.58ZM230.93 240.19C223.871 240.19 216.971 238.097 211.102 234.175C205.233 230.253 200.658 224.679 197.957 218.158C195.255 211.636 194.549 204.46 195.926 197.537C197.303 190.614 200.702 184.255 205.693 179.263C210.685 174.272 217.044 170.873 223.967 169.496C230.89 168.119 238.066 168.825 244.588 171.527C251.109 174.228 256.684 178.802 260.605 184.672C264.527 190.541 266.62 197.441 266.62 204.5C266.609 213.962 262.846 223.034 256.155 229.725C249.464 236.416 240.392 240.179 230.93 240.19V240.19ZM230.93 170.3C224.166 170.3 217.554 172.306 211.93 176.064C206.305 179.822 201.922 185.163 199.333 191.412C196.745 197.661 196.068 204.538 197.387 211.172C198.707 217.806 201.964 223.9 206.747 228.683C211.53 233.466 217.624 236.723 224.258 238.043C230.892 239.362 237.769 238.685 244.018 236.097C250.267 233.508 255.608 229.125 259.366 223.5C263.124 217.876 265.13 211.264 265.13 204.5C265.122 195.432 261.516 186.738 255.104 180.326C248.692 173.914 239.998 170.308 230.93 170.3Z" fill="#382C6F"/>
<path d="M230.93 234.37C247.427 234.37 260.8 220.997 260.8 204.5C260.8 188.003 247.427 174.63 230.93 174.63C214.433 174.63 201.06 188.003 201.06 204.5C201.06 220.997 214.433 234.37 230.93 234.37Z" fill="#BED1EB"/>
<path d="M230.93 235.12C224.874 235.12 218.954 233.324 213.918 229.959C208.883 226.595 204.958 221.813 202.641 216.218C200.323 210.623 199.717 204.466 200.898 198.526C202.08 192.587 204.996 187.131 209.278 182.848C213.561 178.566 219.017 175.65 224.956 174.468C230.896 173.287 237.053 173.893 242.648 176.211C248.243 178.528 253.025 182.453 256.39 187.488C259.754 192.524 261.55 198.444 261.55 204.5C261.542 212.618 258.313 220.402 252.573 226.143C246.832 231.883 239.048 235.112 230.93 235.12V235.12ZM230.93 175.38C225.171 175.382 219.542 177.091 214.755 180.292C209.967 183.493 206.236 188.042 204.034 193.363C201.831 198.684 201.256 204.539 202.381 210.187C203.505 215.835 206.28 221.023 210.353 225.094C214.425 229.166 219.614 231.938 225.263 233.061C230.911 234.184 236.766 233.607 242.086 231.402C247.406 229.198 251.954 225.466 255.153 220.677C258.352 215.889 260.06 210.259 260.06 204.5C260.049 196.778 256.977 189.376 251.516 183.917C246.055 178.458 238.652 175.388 230.93 175.38V175.38Z" fill="white"/>
<path d="M230.19 174.63H231.68V180.91H230.19V174.63Z" fill="white"/>
<path d="M230.19 228.09H231.68V234.37H230.19V228.09Z" fill="white"/>
<path d="M216 178.63L219.14 184.07L216 178.63Z" fill="#2D314A"/>
<path d="M215.347 179.004L216.637 178.259L219.777 183.698L218.487 184.443L215.347 179.004Z" fill="white"/>
<path d="M242.73 224.93L245.87 230.37L242.73 224.93Z" fill="#2D314A"/>
<path d="M242.085 225.296L243.376 224.551L246.516 229.99L245.225 230.735L242.085 225.296Z" fill="white"/>
<path d="M205.07 189.56L210.51 192.71L205.07 189.56Z" fill="#2D314A"/>
<path d="M204.694 190.213L205.439 188.923L210.878 192.063L210.133 193.353L204.694 190.213Z" fill="white"/>
<path d="M251.36 216.29L256.8 219.43L251.36 216.29Z" fill="#2D314A"/>
<path d="M250.993 216.931L251.738 215.641L257.177 218.781L256.432 220.071L250.993 216.931Z" fill="white"/>
<path d="M201.06 203.75H207.34V205.24H201.06V203.75Z" fill="white"/>
<path d="M254.52 203.75H260.8V205.24H254.52V203.75Z" fill="white"/>
<path d="M205.07 219.43L210.51 216.29L205.07 219.43Z" fill="#2D314A"/>
<path d="M204.697 218.806L210.136 215.667L210.881 216.958L205.442 220.097L204.697 218.806Z" fill="white"/>
<path d="M251.36 192.71L256.8 189.56L251.36 192.71Z" fill="#2D314A"/>
<path d="M250.989 192.087L256.428 188.948L257.172 190.238L251.733 193.378L250.989 192.087Z" fill="white"/>
<path d="M216 230.37L219.14 224.93L216 230.37Z" fill="#2D314A"/>
<path d="M215.344 229.965L218.483 224.526L219.773 225.271L216.634 230.71L215.344 229.965Z" fill="white"/>
<path d="M242.73 184.07L245.87 178.63L242.73 184.07Z" fill="#2D314A"/>
<path d="M242.072 183.676L245.211 178.237L246.502 178.981L243.363 184.421L242.072 183.676Z" fill="white"/>
<path d="M245.13 205.25H230.19V186.3H231.68V203.75H245.13V205.25Z" fill="white"/>
<path d="M243.26 335.32H232.43L230.93 312.33H244.75L243.26 335.32V335.32Z" fill="#FF7494"/>
<path d="M244 297.41C244 298.308 243.823 299.197 243.479 300.026C243.135 300.855 242.631 301.609 241.996 302.243C241.361 302.877 240.607 303.38 239.777 303.723C238.947 304.065 238.058 304.241 237.16 304.24V298.6C234.858 298.523 232.676 297.554 231.074 295.898C229.473 294.242 228.578 292.028 228.578 289.725C228.578 287.421 229.473 285.208 231.074 283.552C232.676 281.896 234.858 280.927 237.16 280.85V290.57C238.974 290.57 240.714 291.29 241.997 292.573C243.279 293.856 244 295.596 244 297.41V297.41Z" fill="white"/>
<path d="M237.14 305H236.4V299.33C233.924 299.134 231.619 297.988 229.969 296.131C228.319 294.275 227.45 291.852 227.546 289.37C227.642 286.887 228.694 284.538 230.482 282.814C232.27 281.09 234.656 280.125 237.14 280.12H237.89V289.88C239.82 290.079 241.601 291.011 242.865 292.483C244.129 293.956 244.78 295.857 244.683 297.795C244.587 299.734 243.751 301.561 242.348 302.902C240.945 304.242 239.081 304.993 237.14 305V305ZM236.4 281.65C234.329 281.855 232.416 282.847 231.054 284.421C229.693 285.995 228.987 288.032 229.081 290.111C229.176 292.19 230.065 294.153 231.564 295.597C233.063 297.04 235.059 297.854 237.14 297.87H237.89V303.47C239.44 303.292 240.862 302.526 241.863 301.331C242.865 300.135 243.37 298.601 243.274 297.044C243.178 295.487 242.488 294.027 241.347 292.964C240.205 291.9 238.7 291.316 237.14 291.33H236.4V281.65Z" fill="#382C6F"/>
<path d="M530.19 443.13L526.95 468.1L526.63 470.59L525.65 478.12H483.63L482.66 470.59L482.46 469.1L480.11 450.94L530.19 443.13V443.13Z" fill="#236FD4"/>
<path d="M489.08 469.78L487.6 469.91L487.52 469.1L483.24 422.61L483.18 421.93L484.67 421.8L484.74 422.61L489.02 469.1L489.08 469.78ZM491.455 421.924L492.943 421.842L495.583 469.819L494.095 469.901L491.455 421.924ZM499.775 421.872L501.264 421.844L502.135 469.827L500.646 469.854L499.775 421.872ZM507.144 469.807L508.032 421.825L509.522 421.853L508.634 469.835L507.144 469.807ZM513.654 469.771L516.328 421.795L517.816 421.878L515.142 469.854L513.654 469.771ZM526.15 421.93L526.09 422.61L521.77 469.1L521.7 469.91L520.21 469.78L520.27 469.1L524.59 422.61L524.66 421.8L526.15 421.93Z" fill="white"/>
<path d="M476.25 421.12L476.44 422.61H532.86L533.04 421.12H476.25ZM526.82 469.12H482.47L482.66 470.61H526.66L526.98 468.12L526.82 469.12Z" fill="white"/>
<path d="M369.927 335.147L372.303 283.992L373.792 284.061L371.415 335.216L369.927 335.147Z" fill="white"/>
<path d="M186.84 341.9H286.86V343.39H186.84V341.9Z" fill="#382C6F"/>
<path d="M335.28 341.9H500.95V343.39H335.28V341.9Z" fill="#382C6F"/>
<path d="M523.6 341.9H566.55V343.39H523.6V341.9Z" fill="#382C6F"/>
<path d="M509.15 341.9H516.04V343.39H509.15V341.9Z" fill="#382C6F"/>
<path d="M475.27 412.85H497.09V414.34H475.27V412.85Z" fill="#382C6F"/>
<path d="M500.6 478.12H542.8V479.61H500.6V478.12Z" fill="#382C6F"/>
<path d="M202.49 478.12H294.49V479.61H202.49V478.12Z" fill="#382C6F"/>
<path d="M115.95 478.12H150.39V479.61H115.95V478.12Z" fill="#382C6F"/>
<path d="M478.63 478.12H490.52V479.61H478.63V478.12Z" fill="#382C6F"/>
<path d="M660 211.75L642.7 247.75L630.56 238.3L659.38 212.07V212.02L620.92 230.8L611.44 223.43L659.88 211.57C659.902 211.567 659.925 211.57 659.946 211.579C659.966 211.589 659.984 211.603 659.997 211.622C660.009 211.641 660.016 211.663 660.017 211.686C660.017 211.708 660.012 211.731 660 211.75V211.75Z" fill="white"/>
<path d="M643 248.92L629.43 238.36L655.22 214.88L620.84 231.67L609.78 223.07L659.71 210.84C659.869 210.802 660.036 210.809 660.191 210.86C660.347 210.911 660.485 211.005 660.59 211.13C660.706 211.266 660.78 211.434 660.801 211.612C660.822 211.79 660.791 211.97 660.71 212.13L643 248.92ZM631.74 238.27L642.45 246.6L657.9 214.47L631.74 238.27ZM613.13 223.78L621.02 229.92L654.18 213.73L613.13 223.78Z" fill="#277BEB"/>
<path d="M659.4 212.08L630.58 238.31L622.58 245.55C622.437 245.673 622.262 245.752 622.075 245.78C621.888 245.807 621.698 245.781 621.525 245.705C621.352 245.629 621.205 245.505 621.1 245.348C620.994 245.192 620.936 245.009 620.93 244.82V230.82L659.36 212C659.36 212 659.43 212.05 659.4 212.08Z" fill="white"/>
<path d="M622 246.56C621.759 246.558 621.521 246.507 621.3 246.41C620.997 246.27 620.741 246.046 620.564 245.764C620.386 245.481 620.295 245.153 620.3 244.82V230.34L620.73 230.13L659.73 211.13L660.51 212.13L660.03 212.64L623.25 246.12C622.908 246.426 622.458 246.584 622 246.56ZM621.72 231.26V244.82C621.717 244.868 621.731 244.916 621.758 244.955C621.785 244.995 621.824 245.025 621.87 245.04C621.908 245.068 621.953 245.083 622 245.083C622.047 245.083 622.092 245.068 622.13 245.04L655.23 214.92L621.72 231.26Z" fill="#277BEB"/>
<path d="M612.64 251.77L611.84 250.51C613.84 249.26 614.92 248.51 614.93 248.51L615.79 249.73C615.79 249.73 614.65 250.5 612.64 251.77V251.77ZM542.62 274.25V272.76C545.01 272.76 547.48 272.65 549.95 272.45L550.07 273.94C547.56 274.14 545.06 274.24 542.62 274.25ZM535.16 273.96C532.67 273.75 530.16 273.43 527.76 273.01L528.02 271.54C530.39 271.95 532.83 272.27 535.29 272.47L535.16 273.96ZM557.47 273.07L557.24 271.6C559.62 271.24 562.05 270.78 564.47 270.26L564.79 271.71C562.34 272.25 559.87 272.71 557.47 273.07ZM520.47 271.37C518.072 270.702 515.709 269.915 513.39 269.01L513.93 267.62C516.18 268.5 518.52 269.27 520.87 269.93L520.47 271.37ZM572 269.91L571.59 268.47C573.91 267.83 576.28 267.09 578.59 266.3L579.06 267.71C576.75 268.52 574.36 269.26 572 269.91V269.91ZM506.58 266C504.35 264.95 502.09 263.93 499.86 263L500.43 261.62C502.68 262.62 504.97 263.62 507.22 264.62L506.58 266ZM586.11 265.18L585.56 263.79C587.81 262.9 590.1 261.94 592.35 260.93L592.96 262.29C590.69 263.28 588.38 264.26 586.11 265.15V265.18ZM493 260.29C490.68 259.44 488.33 258.66 486 257.96L486.43 256.53C488.77 257.24 491.14 258.03 493.49 258.88L493 260.29ZM599.68 259.06L599.01 257.73C601.21 256.62 603.4 255.46 605.51 254.27L606.25 255.57C604.11 256.77 601.9 257.94 599.68 259.06ZM478.92 256C476.52 255.42 474.1 254.9 471.73 254.46L472 253C474.4 253.43 476.85 254 479.28 254.55L478.92 256ZM428 255.69L427.6 254.25C429.94 253.61 432.39 253.05 434.89 252.6L435.15 254.07C432.74 254.51 430.34 255.06 428 255.69V255.69ZM464.42 253.37C461.97 253.08 459.51 252.87 457.09 252.75L457.17 251.26C459.62 251.38 462.11 251.59 464.59 251.89L464.42 253.37ZM442.42 253.07L442.27 251.58C444.71 251.35 447.22 251.2 449.72 251.15V252.64C447.33 252.69 444.86 252.84 442.46 253.07H442.42ZM417.77 259.53L417.04 258.22C417.04 258.22 418.27 257.55 420.52 256.64L421.08 258.02C419.949 258.461 418.844 258.965 417.77 259.53V259.53Z" fill="#277BEB"/>
<path d="M469.16 232.74H429V204.83H469.19L469.16 232.74ZM430.47 231.25H467.67V206.32H430.47V231.25Z" fill="#277BEB"/>
<path d="M449.56 223.09L429.24 206.15L430.2 205L449.54 221.13L467.93 205.01L468.91 206.14L449.56 223.09V223.09Z" fill="#277BEB"/>
<path d="M473.4 205.58C473.4 206.569 473.107 207.536 472.557 208.358C472.008 209.18 471.227 209.821 470.313 210.199C469.4 210.578 468.394 210.677 467.425 210.484C466.455 210.291 465.564 209.815 464.865 209.115C464.165 208.416 463.689 207.525 463.496 206.555C463.303 205.585 463.402 204.58 463.781 203.667C464.159 202.753 464.8 201.972 465.622 201.423C466.444 200.873 467.411 200.58 468.4 200.58C469.726 200.58 470.998 201.107 471.936 202.044C472.873 202.982 473.4 204.254 473.4 205.58V205.58Z" fill="white"/>
<path d="M468.42 211.31C467.284 211.312 466.173 210.977 465.227 210.347C464.282 209.717 463.545 208.82 463.109 207.771C462.673 206.722 462.559 205.567 462.78 204.453C463.001 203.338 463.548 202.315 464.351 201.511C465.155 200.708 466.178 200.161 467.293 199.94C468.407 199.719 469.562 199.833 470.611 200.269C471.661 200.704 472.557 201.442 473.187 202.387C473.817 203.333 474.152 204.444 474.15 205.58C474.147 207.099 473.543 208.555 472.469 209.629C471.395 210.703 469.939 211.307 468.42 211.31V211.31ZM468.42 201.31C467.581 201.31 466.762 201.559 466.064 202.025C465.367 202.49 464.824 203.153 464.503 203.927C464.182 204.702 464.098 205.555 464.262 206.377C464.425 207.2 464.829 207.955 465.422 208.548C466.015 209.141 466.77 209.545 467.593 209.708C468.415 209.872 469.268 209.788 470.043 209.467C470.817 209.146 471.48 208.603 471.945 207.906C472.411 207.208 472.66 206.389 472.66 205.55C472.652 204.431 472.202 203.36 471.408 202.571C470.613 201.783 469.539 201.34 468.42 201.34V201.31Z" fill="#277BEB"/>
<path d="M599.95 293.42H601.44V297.61H599.95V293.42ZM599.95 318.56H601.44V322.75H599.95V318.56ZM592.718 295.728L594.009 294.983L596.104 298.611L594.813 299.356L592.718 295.728ZM605.276 317.492L606.566 316.747L608.661 320.376L607.371 321.121L605.276 317.492ZM588.813 299.054L589.558 297.758L593.203 299.853L592.458 301.149L588.813 299.054ZM609.379 313.951L610.124 312.66L613.752 314.755L613.007 316.046L609.379 313.951Z" fill="#236FD4"/>
<path d="M586.03 307.34H590.22V308.83H586.03V307.34ZM611.17 307.34H615.36V308.83H611.17V307.34Z" fill="#236FD4"/>
<path d="M587.624 314.809L591.253 312.715L591.998 314.005L588.369 316.1L587.624 314.809ZM609.396 302.25L613.026 300.156L613.77 301.446L610.141 303.541L609.396 302.25Z" fill="#236FD4"/>
<path d="M592.685 320.356L594.779 316.727L596.07 317.472L593.975 321.101L592.685 320.356ZM605.253 298.587L607.347 294.958L608.638 295.703L606.543 299.332L605.253 298.587Z" fill="#236FD4"/>
<path d="M296.05 108.44H297.54V112.63H296.05V108.44ZM296.05 133.58H297.54V137.77H296.05V133.58ZM288.815 110.775L290.105 110.03L292.2 113.659L290.91 114.404L288.815 110.775ZM301.38 132.535L302.671 131.79L304.766 135.419L303.475 136.164L301.38 132.535ZM283.729 116.439L284.474 115.149L288.103 117.244L287.358 118.534L283.729 116.439ZM305.481 128.976L306.226 127.685L309.855 129.78L309.11 131.071L305.481 128.976Z" fill="#236FD4"/>
<path d="M282.13 122.36H286.32V123.85H282.13V122.36ZM307.27 122.36H311.46V123.85H307.27V122.36Z" fill="#236FD4"/>
<path d="M283.731 129.81L287.36 127.715L288.104 129.006L284.475 131.1L283.731 129.81ZM305.494 117.246L309.123 115.151L309.868 116.442L306.239 118.536L305.494 117.246Z" fill="#236FD4"/>
<path d="M288.829 135.451L290.924 131.822L292.215 132.567L290.12 136.196L288.829 135.451ZM301.36 113.635L303.454 110.006L304.745 110.751L302.651 114.38L301.36 113.635Z" fill="#236FD4"/>
</g>
<defs>
<clipPath id="clip0_224_319">
<rect width="681.32" height="557.03" fill="white"/>
</clipPath>
</defs>
</svg>
